<svg width="11" height="9" viewBox="0 0 11 9" xmlns="http://www.w3.org/2000/svg"><title>Cheack GA</title><g fill="#FFF" fill-rule="evenodd"><path d="M.822 4.738l3.565 3.628.18.18.177-.18 5.923-6.063.17-.175-.17-.175L9.556.825l-.18-.182L9.2.825 4.386 5.758h.357l-2.456-2.5-.178-.18-.18.18L.823 4.39l-.173.175.172.175zm.356-.35v.35l1.11-1.13H1.93l2.457 2.5.18.182.177-.182 4.814-4.933H9.2l1.11 1.13v-.35l-5.924 6.06h.357L1.178 4.387z"/><path d="M1 4.563L4.565 8.19l5.923-6.06L9.378 1 4.566 5.933l-2.456-2.5L1 4.564z"/></g></svg>