<svg width="16" height="16" viewBox="0 0 16 16" xmlns="http://www.w3.org/2000/svg"><title>clock104</title><g fill="#000" fill-rule="evenodd"><path d="M15.38 4.886C14.536 2.92 13.103 1.49 11.12.643 10.13.22 9.09.003 8.006.003 6.92.004 5.89.22 4.9.644 2.933 1.487 1.494 2.916.65 4.886.224 5.873.02 6.906.02 7.99c0 1.086.205 2.13.63 3.116.844 1.97 2.284 3.407 4.25 4.25.99.426 2.02.64 3.106.64 1.084 0 2.123-.216 3.114-.64 1.983-.845 3.416-2.284 4.26-4.25.425-.99.64-2.03.64-3.115 0-1.083-.215-2.114-.64-3.104zm-1.277 6.64c-.628 1.077-1.488 1.93-2.572 2.563-1.076.627-2.256.943-3.524.943-.954 0-1.864-.183-2.73-.56-.866-.376-1.614-.87-2.24-1.495-.625-.626-1.123-1.38-1.495-2.25-.37-.863-.55-1.783-.55-2.737 0-1.267.312-2.44.936-3.515.627-1.078 1.487-1.934 2.563-2.563 1.075-.63 2.247-.945 3.516-.945 1.268 0 2.448.317 3.525.945 1.084.63 1.943 1.487 2.573 2.563.63 1.076.944 2.248.944 3.516 0 1.27-.312 2.452-.944 3.536z"/><path d="M8.513 7.92V3.39c0-.27-.236-.49-.508-.49-.253 0-.48.22-.48.49v4.6c0 .01.017.045.017.07-.018.16.026.29.13.395l2.617 2.616c.174.176.498.176.672 0 .202-.2.188-.492 0-.682L8.512 7.92z"/></g></svg>