<svg width="17" height="12" viewBox="0 0 17 12" xmlns="http://www.w3.org/2000/svg"><title>newspaper15</title><g fill="#000" fill-rule="evenodd"><path d="M2.91 7.563h4.64c.1 0 .183-.084.183-.188v-2.6c0-.105-.082-.19-.183-.19H2.91c-.1 0-.184.085-.184.19v2.6c0 .104.083.188.184.188zm.184-2.6h4.272v2.223H3.094V4.962z"/><path d="M16.97.544c-.004-.367-.27-.53-.53-.53H2.11c-.175.005-.438.13-.44.46v5.19H.183c-.058 0-.112.026-.147.074-.035.047-.046.108-.03.165l1.665 5.914c.01.096.086.17.182.17h14.933c.1 0 .183-.084.183-.188 0-.446.005-10.888 0-11.256zM1.67 6.04v4.41L.428 6.04h1.24zm14.933 5.57H2.043V5.85c0-.014-.003-.027-.006-.04V.474c0-.025 0-.08.08-.085H16.44c.16 0 .162.107.163.158.004.34 0 9.614 0 11.062z"/><path d="M15.352 2.797H2.92c-.1 0-.183.085-.183.19 0 .103.082.187.183.187h12.432c.1 0 .183-.084.183-.188s-.082-.19-.183-.19zM15.352 4.47H8.27c-.102 0-.184.083-.184.187s.082.19.184.19h7.082c.1 0 .183-.086.183-.19 0-.104-.082-.188-.183-.188zM15.352 6.14H8.27c-.102 0-.184.085-.184.19 0 .103.082.188.184.188h7.082c.1 0 .183-.085.183-.19 0-.103-.082-.187-.183-.187zM15.352 7.812H8.27c-.102 0-.184.085-.184.19 0 .103.082.187.184.187h7.082c.1 0 .183-.085.183-.19 0-.103-.082-.188-.183-.188zM15.352 9.484H2.92c-.1 0-.183.084-.183.188s.082.19.183.19h12.432c.1 0 .183-.086.183-.19 0-.104-.082-.188-.183-.188z"/></g></svg>