<svg width="17" height="17" viewBox="0 0 17 17" xmlns="http://www.w3.org/2000/svg"><title>world91</title><g fill="#000" fill-rule="evenodd"><path d="M15.276 3.702l-.25.08-1.33.117-.375.6-.27-.087-1.06-.955-.153-.496-.206-.53-.664-.595-.785-.154-.017.36.77.75.375.442-.423.22-.344-.1-.515-.215.018-.416-.677-.28-.225.98-.68.154.067.546.888.17.154-.87.733.107.34.2h.548l.375.75.993 1.008-.073.392-.8-.102-1.384.698-.995 1.195-.13.53H8.82l-.666-.307-.647.307.16.683.282-.325.496-.015-.035.613.41.12.41.46.67-.188.763.12.888.24.443.05.752.854 1.45.853-.938 1.79-.99.46-.375 1.025-1.433.956-.153.552c3.662-.882 6.385-4.17 6.385-8.104-.002-1.717-.522-3.316-1.414-4.642z"/><path d="M9.305 12.706l-.608-1.127.558-1.163-.558-.167-.626-.63-1.387-.31-.46-.964v.572H6.02l-1.196-1.62V5.964L3.947 4.54l-1.392.248h-.937l-.472-.31L1.748 4l-.6.14C.423 5.376.002 6.81.002 8.345c0 4.608 3.735 8.345 8.343 8.345.355 0 .703-.032 1.047-.073l-.087-1.01s.383-1.502.383-1.553c0-.052-.383-1.348-.383-1.348zM3.103 2.69l1.482-.206.683-.374.77.22 1.227-.067.42-.66.614.1 1.49-.14.41-.453.58-.386.818.123.3-.045C10.817.294 9.617 0 8.344 0 5.755 0 3.44 1.18 1.91 3.034h.005l1.188-.343zM8.697.83L9.55.36l.547.317-.792.603-.757.076-.34-.22.49-.306zM6.174.898l.376.157.492-.157.27.465-1.138.3-.547-.32s.534-.345.547-.445z"/></g></svg>