<svg width="26" height="26" viewBox="0 0 26 26" xmlns="http://www.w3.org/2000/svg"><title>app store icon</title><defs><linearGradient x1="50%" y1="0%" x2="50%" y2="100%" id="a"><stop stop-color="#00D6FE" offset="0%"/><stop stop-color="#145CF4" offset="100%"/></linearGradient></defs><g fill="none" fill-rule="evenodd"><rect fill="url(#a)" width="26" height="26" rx="4"/><path d="M12.977 24.327c6.27 0 11.35-5.08 11.35-11.35 0-6.268-5.08-11.35-11.35-11.35-6.268 0-11.35 5.082-11.35 11.35 0 6.27 5.082 11.35 11.35 11.35zm0-.995c5.72 0 10.355-4.636 10.355-10.355 0-5.718-4.636-10.354-10.355-10.354-5.718 0-10.354 4.636-10.354 10.354 0 5.72 4.636 10.355 10.354 10.355z" fill="#FFF"/><g fill="#FFF"><path d="M10.414 13.837h5.262L14.78 12.3h-3.466l-.9 1.537zm-2.428 0H5.923V12.3H8.88l-.894 1.537zm10.138 0h1.998V12.3h-2.878l.88 1.537zM16.01 13.876L12.352 7.54c-.222-.384-.092-.867.286-1.086.38-.22.864-.086 1.084.295l3.658 6.335-1.37.79zm.135.235l.782 1.355 1.37-.79-.78-1.355-1.372.79zm1.083 1.467c.068-.113.79-.565.927-.565.136 0 1.266.113 1.266 1.967.023.316-.203 1.49-.43 1.47-.18.02 0-.612-.564-.928-.565-.317-1.146-.944-1.266-1.334-.09-.294 0-.498.068-.61zM7.32 15.51l3.334-5.775 1.37.79L8.692 16.3l-1.37-.79zm-.123.24l-.663 2.676 2.01-1.897-1.347-.78zM10.79 9.5l.384-.665c.218-.38.7-.507 1.08-.288.38.22.508.7.29 1.08l-.384.664-1.37-.79z"/></g></g></svg>