<svg width="23" height="25" viewBox="0 0 23 25" xmlns="http://www.w3.org/2000/svg" xmlns:xlink="http://www.w3.org/1999/xlink"><title>gplay-small-color</title><defs><path id="a" d="M.786 23.89l.826-.46c2.496-1.39 9.76-5.428 9.76-5.428l5.36-2.978-3.566-3.404L.223 23.98c.154.048.35.024.563-.09z"/><path id="b" d="M.33 24.04L13.27 11.68.438-.574C.178-.505 0-.28 0 .093v23.411c0 .28.13.472.33.536z"/></defs><g transform="translate(0 1)" fill="none" fill-rule="evenodd"><use fill="#CB4562" xlink:href="#a"/><path d="M16.728 15.16l-3.565-3.402 3.565-3.404s4.646 2.602 5.18 2.88l.072.04c.445.268.474.7-.094 1.02l-.31.172-4.848 2.695z" fill="#F79F78"/><use fill="#3F8CB4" xlink:href="#b"/><path d="M7.91 3.33L1.15-.426C.897-.565.647-.607.445-.55L13.28 11.703 16.847 8.3l-5.358-2.978-3.58-1.99z" fill="#9ED3A8"/></g></svg>